# xmcd CD database file
#
# Track frame offsets:
#       150
#       23455
#       66772
#       96427
#       113052
#       125732
#       151412
#       180272
#       209160
#       263527
#
# Disc length: 4272 seconds
#
# Revision: 1
# Processed by: cddbd v1.5.2PL0 Copyright (c) Steve Scherf et al.
# Submitted via: CDDBEditor PBVER-PBREV
#
DISCID=8310ae0a
DTITLE=Alexandre Tharaud, Aleksandar Madzar - Chabrier: Works for piano, v. 3
DYEAR=1998
DGENRE=Piano
TTITLE0=Cortège burlesque, piano à 4 mains (1881) 
TTITLE1=Souveniers de Munich, piano à 4 mains (1887)
TTITLE2=Prélude et Marche française, piano à 4 mains (1883-1885) - Prélude
TTITLE3=Prélude et Marche française, piano à 4 mains (1883-1885) - Marche française
TTITLE4=3 Valses Romantiques, piano à 4 mains (1883) - No. 1  
TTITLE5=3 Valses Romantiques, piano à 4 mains (1883) - No. 2 
TTITLE6=3 Valses Romantiques, piano à 4 mains (1883) - No. 3 
TTITLE7=España, à 2 pianos (1883)
TTITLE8=Souvenirs de Brunehaut (Grande Valse), piano solo (1862)
TTITLE9=Julia, piano solo (1857)
EXTD=
EXTT0=
EXTT1=
EXTT2=
EXTT3=
EXTT4=
EXTT5=
EXTT6=
EXTT7=
EXTT8=
EXTT9=
PLAYORDER=
